<svg version="1.1" id="Layer_1" xmlns="http://www.w3.org/2000/svg" xmlns:xlink="http://www.w3.org/1999/xlink" x="0px"
	y="0px" viewBox="0 0 591.7 157.8" style="enable-background:new 0 0 591.7 157.8;" xml:space="preserve">
	<style type="text/css">
		.st0 {
			clip-path: url(#SVGID_2_);
		}

		.st1 {
			fill-rule: evenodd;
			clip-rule: evenodd;
			fill: #000;
		}
		.st3 {
			fill: #fff;
		}

		.st2 {
			fill: #000;
		}
	</style>
	<g>
		<g>
			<g>
				<g>
					<defs>
						<path id="SVGID_1_" d="M58,101.8c0-15.7,5.4-28.9,16.3-39.8c11-10.9,24.2-16.3,39.6-16.3c15.6,0,28.9,5.5,39.8,16.5
						c10.9,11,16.3,24.2,16.3,39.6c0,15.6-5.5,28.8-16.5,39.6c-11,10.9-24.2,16.3-39.6,16.3c-15.5,0-28.8-5.5-39.6-16.3
						C63.5,130.4,58,117.2,58,101.8z" />
					</defs>
					<use xlink:href="#SVGID_1_"
						 style="overflow:visible;fill-rule:evenodd;clip-rule:evenodd;fill:#FA233B;" />
					<clipPath id="SVGID_2_">
						<use xlink:href="#SVGID_1_" style="overflow:visible;" />
					</clipPath>

					<g class="st0">
						<path class="st3" d="M91.9,115.7c0,0,26.3,23.1,55.2,10.6c28.9-12.4-43.7,35.7-55.8,9.5C77.9,107,91.9,115.7,91.9,115.7z" />
					</g>

				</g>
			</g>
			<g>
				<path class="st1" d="M38.9,92.7c-1.3,0-2,0-2.3-0.1c-5.1,0.2-9.2,2.6-12.4,6.9c-2,2.7-2.9,6-2.9,9.7c0,4.9,1.7,9,5.1,12.2
				c3.4,3.1,7.5,4.7,12.4,4.7h7.7c3.1,0,5.7,1,7.6,3c1.9,2,2.9,4.6,2.9,7.7c0,3.1-1,5.5-3,7.5c-1.9,1.9-4.4,2.8-7.5,2.8h-7.6
				c-5.7,0-10.7-1-15.2-2.9c-7.3-3.2-13-7.9-17.3-14.2C2.1,123.8,0,116.8,0,109c0-7.9,2.1-14.9,6.4-21.1
				c4.3-6.2,10.1-10.8,17.3-13.8c4.7-1.9,10.3-2.8,16.7-2.8h6c3.1,0,5.7,1,7.6,3c1.9,2,2.9,4.6,2.9,7.7c0,3-1,5.6-3,7.6
				c-1.9,1.9-4.4,2.9-7.5,2.9H38.9z" />
			</g>
			<g>
				<path class="st1" d="M474.5,47.7h5.4c3.2,0,5.9-1.1,8.1-3.2c2.2-2.1,3.3-4.7,3.3-7.8c0-4.9-2.3-8.3-6.9-10.1
				c-1.1-0.4-2.1-0.7-3.1-0.8c-0.2,0.1-0.7,0.1-1.5,0.1h-5.3V47.7z M460.9,18.9c0-1.8,0.7-3.3,2.2-4.7c1.5-1.4,3.1-2.1,4.9-2.1h10.7
				c7.8,0,14.1,2.4,19,7.1c5,4.7,7.4,10.5,7.4,17.4c0,5.1-1.4,9.6-4.2,13.8c-2.8,4.1-6.6,7.1-11.2,9.1c-2.9,1.3-6.2,1.9-9.9,1.9H468
				c-1.4,0-2.5-0.2-3.4-0.7c-0.5-0.2-1-0.6-1.7-1.1c-1.4-1.2-2-2.9-2-5V18.9z" />
			</g>
			<g>
				<path class="st1" d="M521.2,54.5c0,2-0.6,3.7-1.9,4.9c-1.2,1.2-2.8,1.9-4.9,1.9c-2,0-3.7-0.6-4.9-1.9c-1.3-1.2-1.9-2.9-1.9-4.9
				V18.9c0-2,0.6-3.6,1.9-4.9c1.2-1.3,2.9-1.9,4.9-1.9c2,0,3.7,0.6,4.9,1.9c1.3,1.2,1.9,2.8,1.9,4.9V54.5z" />
			</g>
			<g>
				<path class="st1" d="M537.8,36.7c0,3.2,1.1,5.9,3.3,8.1c2.2,2.2,4.9,3.3,8.1,3.3c3.2,0,5.9-1.1,8.1-3.3c2.3-2.2,3.4-4.9,3.4-8.1
				c0-3.2-1.1-5.9-3.4-8.1c-2.2-2.3-4.9-3.4-8.1-3.4c-3.2,0-5.9,1.1-8.1,3.4C538.9,30.8,537.8,33.5,537.8,36.7z M524,36.5
				c0-7,2.4-13,7.3-17.9c5-4.9,10.9-7.4,17.8-7.4c7,0,13,2.5,17.9,7.4c4.9,5,7.3,10.9,7.3,17.8c0,7-2.5,12.9-7.4,17.8
				c-5,4.9-10.9,7.3-17.8,7.3c-7,0-12.9-2.4-17.8-7.3C526.4,49.4,524,43.4,524,36.5z" />
			</g>
			<g>
				<g>
					<path class="st1" d="M441.8,6.6l-13.4,3.6c-0.4,0.1-0.8,0.2-1,0.2c-1,0-1.7-0.3-2.3-1c-0.6-0.7-0.9-1.5-0.9-2.5
					c0-1.7,0.8-2.7,2.6-3.1l13.3-3.5c0.4-0.1,0.8-0.2,1-0.2c0.9,0,1.7,0.4,2.3,1.1c0.6,0.6,0.9,1.4,0.9,2.4
					C444.4,5.1,443.5,6.1,441.8,6.6z" />
				</g>
				<g>
					<path class="st2" d="M432.6,41.4l-0.4,1h6.7l-3-7.3l-2.9,5.9C432.8,41.1,432.7,41.3,432.6,41.4z M457.7,52.3
					c0.8,1.8,0.8,3.5,0,5.2c-0.8,1.6-2.1,2.7-3.9,3.5c-1.8,0.7-3.5,0.7-5.2,0.1c-1.6-0.5-2.8-1.8-3.7-4l-1-2.4h-17.3l-1.1,2.4
					c-1,2.1-2.2,3.5-3.6,4c-2.2,0.8-4.4,0.5-6.5-0.7c-2.1-1.3-3.2-3.1-3.2-5.4c0-0.9,0.2-1.8,0.6-2.6l7.4-16.5
					c0.1-0.3,0.3-0.5,0.4-0.7c0.1-0.2,0.2-0.4,0.3-0.6l1.2-2.3l7.8-15.8L430,16c0.3-0.7,0.7-1.2,1.2-1.7c0.4-0.4,0.9-0.8,1.5-1.2
					c0.4-0.2,0.9-0.4,1.3-0.7c1.7-0.6,3.4-0.7,5.2-0.1c1.5,0.6,2.8,1.9,3.6,4.1L457.7,52.3z" />
				</g>
			</g>
			<g>
				<path class="st2" d="M383.5,29.9h11.2c1.8,0,2.7-0.7,2.7-2.1c0-1.4-0.9-2.1-2.7-2.1h-11.1L383.5,29.9z M409.3,27.8
				c0,10.5-4.8,15.7-14.5,15.7h-1.4l13.3,5.6c3.2,1.7,2.7,3.5,2.7,5.4c0,1.7-0.7,3.3-2.1,4.9c-1.4,1.5-2.9,2.3-4.5,2.3
				c-1.8,0-3.7-0.8-5.8-2.5l-13.6-8.9v4.6c0,2-0.6,3.7-1.9,4.9c-1.2,1.2-2.8,1.8-4.9,1.8c-2,0-3.7-0.6-5-1.8
				c-1.3-1.3-1.9-2.9-1.9-4.9V40.3l0-0.5v-0.6l0-2.6l0.1-18c0-0.5,0-1,0.1-1.5c0.4-3.4,2.3-5,6.2-5H394
				C404.2,12,409.3,17.3,409.3,27.8z" />
			</g>
			<g>
				<path class="st1" d="M173.7,81.7c0-7,3.5-10.5,10.5-10.5h49c5.7,0,9.2,2.7,10.8,8l15.3,54.8c0.8,3,0.6,5.7-0.8,8
				c-1.3,2.3-3.5,3.8-6.6,4.7c-3.1,0.8-5.8,0.6-8.1-0.7c-2.3-1.3-3.8-3.5-4.7-6.6l-13.3-47.2h-3.9v44.2c0,3.1-1,5.7-2.9,7.6
				c-1.9,1.9-4.3,2.8-7.5,2.8c-3.1,0-5.7-0.9-7.6-2.8c-1.9-1.9-2.9-4.5-2.9-7.6V92.2h-6.4v44.2c0,3.1-1,5.7-2.9,7.6
				c-1.9,1.9-4.3,2.8-7.5,2.8c-3.1,0-5.6-0.9-7.6-2.8c-1.9-1.9-2.9-4.5-2.9-7.6V81.7z" />
			</g>
			<g>
				<path class="st1" d="M273.9,146.9c-6.9,0-10.4-3.5-10.4-10.5V81.7c0-7,3.5-10.5,10.4-10.5h41.8c3.1,0,5.7,1,7.6,2.9
				c1.9,1.9,2.9,4.5,2.9,7.6c0,3.1-1,5.7-2.9,7.6c-1.9,1.9-4.5,2.9-7.6,2.9h-31.4v6.3h31.4c3.1,0,5.7,1,7.6,2.9
				c1.9,1.9,2.9,4.5,2.9,7.6c0,3.1-1,5.6-2.9,7.6c-1.9,1.9-4.5,2.9-7.6,2.9h-31.4v6.3h31.4c3.1,0,5.7,1,7.6,2.9
				c1.9,1.9,2.9,4.5,2.9,7.6c0,3.1-1,5.7-2.9,7.6c-1.9,1.9-4.5,2.9-7.6,2.9H273.9z" />
			</g>
			<g>
				<path class="st1"
					d="M428.1,92.4c-1.3,0-2,0-2.3-0.1c-5.1,0.3-9.2,2.6-12.4,7c-1.9,2.7-2.9,6-2.9,9.8c0,4.9,1.7,8.9,5.1,12.1
				c3.4,3.1,7.5,4.7,12.4,4.7h7.7c3.1,0,5.7,1,7.6,3c1.9,2,2.9,4.6,2.9,7.7c0,3-1,5.5-3.1,7.5c-1.9,1.8-4.4,2.8-7.5,2.8h-7.6
				c-5.7,0-10.7-1-15.2-2.9c-7.3-3.2-13-7.9-17.3-14.2c-4.2-6.3-6.3-13.3-6.3-21c0-7.8,2.1-14.9,6.5-21c4.3-6.2,10.1-10.8,17.3-13.8
				c4.7-1.9,10.3-2.8,16.7-2.8h6c3.1,0,5.7,1,7.6,3.1c1.9,2,2.9,4.6,2.9,7.7c0,3-1,5.6-3.1,7.6c-1.9,1.9-4.4,2.9-7.5,2.9H428.1z" />
			</g>
			<g>
				<path class="st1" d="M473.6,136.4c0,3.1-1,5.7-2.9,7.6c-1.9,1.9-4.3,2.8-7.5,2.8c-3.1,0-5.7-0.9-7.6-2.8
				c-1.9-1.9-2.9-4.5-2.9-7.6V81.7c0-3.1,1-5.6,2.9-7.5c1.9-1.9,4.5-2.9,7.6-2.9c3.1,0,5.6,1,7.5,2.9c1.9,1.9,2.9,4.3,2.9,7.5V136.4
				z" />
			</g>
			<g>
				<path class="st1" d="M560.3,146.9c-6.9,0-10.4-3.5-10.4-10.5V81.7c0-3.1,0.9-5.6,2.8-7.5c1.9-1.9,4.5-2.9,7.6-2.9
				c3.1,0,5.6,1,7.5,2.9c1.9,1.9,2.9,4.3,2.9,7.5v44.2h11.1c3,0,5.4,1,7.2,2.9c1.8,1.9,2.7,4.5,2.7,7.6c0,3.1-0.9,5.7-2.7,7.6
				c-1.8,1.9-4.2,2.9-7.2,2.9H560.3z" />
			</g>
			<g>
				<path class="st2" d="M351.5,97.3h15.6c2.7,0,4-1,4-3c0-2-1.3-3-4-3h-15.6V97.3z M388.6,94.2c0,15.4-7.1,23.1-21.3,23.1h-2.1
				l19.5,8.2c4.7,2.5,4,5.2,4,7.9c0,2.5-1,4.9-3.1,7.1c-2,2.3-4.2,3.4-6.6,3.4c-2.6,0-5.4-1.2-8.5-3.6l-19.9-13v6.7
				c0,3-0.9,5.4-2.8,7.2c-1.8,1.8-4.1,2.7-7.1,2.7c-3,0-5.4-0.9-7.2-2.7c-1.9-1.9-2.8-4.3-2.8-7.2v-21.5v-0.2V81.4v-0.3
				c-0.1-6.3,2.8-9.6,8.7-9.9c0.6-0.1,1.2-0.1,1.9-0.1c0.6,0,1.1,0,1.7,0.1h23.2C381.1,71.1,388.6,78.9,388.6,94.2z" />
			</g>
			<g>
				<path class="st2" d="M507.6,116.3l-0.7,1.5h10.3l-4.7-11.3l-4.1,8.3C508.1,115.3,507.9,115.8,507.6,116.3z M546.2,133
				c1.2,2.8,1.2,5.4,0,7.9c-1.2,2.5-3.2,4.3-5.9,5.3c-2.8,1-5.5,1.1-8,0.1c-2.4-0.8-4.3-2.8-5.7-6.1l-1.5-3.7h-26.6l-1.6,3.7
				c-1.5,3.3-3.4,5.3-5.6,6.1c-3.4,1.2-6.7,0.8-10-1.1c-3.3-1.9-4.9-4.7-4.9-8.2c0-1.3,0.3-2.7,0.9-4l11.4-25.3
				c0.4-0.8,0.8-1.6,1.2-2.2l13.4-27.5c0.3-0.7,0.7-1.4,1.1-1.9c1.2-1.9,3-3.3,5.4-4.2c2.6-1,5.3-1.1,8-0.1c2.4,0.8,4.2,2.9,5.6,6.2
				L546.2,133z" />
			</g>
		</g>
	</g>
</svg>